<?xml version="1.0" encoding="utf-8"?>
<!-- Generator: Adobe Illustrator 16.0.0, SVG Export Plug-In . SVG Version: 6.00 Build 0)  -->
<!DOCTYPE svg PUBLIC "-//W3C//DTD SVG 1.1//EN" "http://www.w3.org/Graphics/SVG/1.1/DTD/svg11.dtd">
<svg version="1.1" id="Layer_1" xmlns="http://www.w3.org/2000/svg" xmlns:xlink="http://www.w3.org/1999/xlink" x="0px" y="0px"
	 width="24.49px" height="28.19px" viewBox="0 0 24.49 28.19" enable-background="new 0 0 24.49 28.19" xml:space="preserve">
<rect x="-1366.893" y="528.329" fill="none" width="224" height="103"/>
<text transform="matrix(1 0 0 1 -1366.8931 537.1289)" fill="#161616" font-family="'Prata-Regular'" font-size="11">LINKEDIN</text>
<rect x="-1268.822" y="528.329" fill="none" width="224" height="103"/>
<text transform="matrix(1 0 0 1 -1268.8218 537.1289)" fill="#161616" font-family="'Prata-Regular'" font-size="11">BEHANCE</text>
<rect x="-1173.821" y="528.329" fill="none" width="224" height="103"/>
<text transform="matrix(1 0 0 1 -1173.8213 537.1289)" fill="#161616" font-family="'Prata-Regular'" font-size="11">DRIBBLE</text>
<g>
	<line fill="none" stroke="#3F3F3F" stroke-width="4" stroke-miterlimit="10" x1="-275.75" y1="24.329" x2="-245.75" y2="24.329"/>
	<line fill="none" stroke="#3F3F3F" stroke-width="4" stroke-miterlimit="10" x1="-275.75" y1="33.329" x2="-245.75" y2="33.329"/>
	<line fill="none" stroke="#3F3F3F" stroke-width="4" stroke-miterlimit="10" x1="-275.75" y1="42.329" x2="-245.75" y2="42.329"/>
</g>
<rect x="-1078.313" y="528.329" fill="none" width="224.001" height="103"/>
<text transform="matrix(1 0 0 1 -1078.313 537.1299)" fill="#161616" font-family="'Prata-Regular'" font-size="11">GITHUB</text>
<rect x="28.247" y="903.643" fill="none" width="224" height="103"/>
<text transform="matrix(1 0 0 1 28.2471 912.4424)" fill="#161616" font-family="'Prata-Regular'" font-size="11">LINKEDIN</text>
<rect x="28.247" y="941.141" fill="none" width="224" height="103"/>
<text transform="matrix(1 0 0 1 28.2461 949.9404)" fill="#161616" font-family="'Prata-Regular'" font-size="11">BEHANCE</text>
<rect x="28.247" y="984.639" fill="none" width="224" height="103"/>
<text transform="matrix(1 0 0 1 28.2461 993.4385)" fill="#161616" font-family="'Prata-Regular'" font-size="11">DRIBBLE</text>
<rect x="28.247" y="1036.139" fill="none" width="224" height="103"/>
<text transform="matrix(1 0 0 1 28.2471 1044.9385)" fill="#161616" font-family="'Prata-Regular'" font-size="11">GITHUB</text>
<rect x="-1493.75" y="725.329" fill="#1E1E1E" width="1366" height="766"/>
<g>
	<path fill="#FFFFFF" d="M-1216.727,1055.202c0-22.58,14.734-39.646,37.313-39.646c8.798,0,16.218,2.545,21.624,6.68
		c6.572,4.98,10.389,12.402,11.343,20.883h-18.763c-0.954-6.785-6.254-11.979-14.311-11.979c-12.296,0-18.126,10.281-18.126,24.063
		c0,13.885,6.996,23.955,18.232,23.955c8.374,0,13.886-5.299,14.734-12.613h18.762c-0.529,7.525-3.922,14.416-9.116,19.398
		c-5.83,5.617-13.568,8.586-24.274,8.586C-1201.568,1094.528-1216.727,1077.886-1216.727,1055.202z"/>
	<path fill="#FFFFFF" d="M-1142.314,1055.095c0-22.684,14.522-39.539,37.419-39.539c23.002,0,37.524,16.855,37.524,39.539
		c0,22.686-14.522,39.539-37.524,39.539C-1127.792,1094.634-1142.314,1077.78-1142.314,1055.095z M-1086.451,1055.095
		c0-13.779-6.042-24.379-18.339-24.379c-12.19,0-18.444,10.6-18.444,24.379c0,13.781,6.254,24.275,18.444,24.275
		C-1092.493,1079.37-1086.451,1068.876-1086.451,1055.095z"/>
	<path fill="#FFFFFF" d="M-1060.06,1017.04h25.229l9.223,33.18c1.378,4.77,4.346,17.277,4.346,17.277h0.212
		c0,0,2.969-12.508,4.24-17.277l9.328-33.18h25.441v75.793h-17.173v-38.162c0-3.074,0.318-15.158,0.318-15.158h-0.213
		c0,0-2.649,11.342-3.498,14.1l-10.918,39.221h-15.477l-10.813-39.115c-0.848-2.756-3.498-14.205-3.498-14.205h-0.212
		c0,0,0.318,12.191,0.318,15.266v38.055h-16.854V1017.04z"/>
	<path fill="#FFFFFF" d="M-971.655,1017.04h57.453v15.477h-38.691v13.568h33.18v14.629h-33.18v16.219h39.327v15.9h-58.089V1017.04z"
		/>
	<path fill="#FFFFFF" d="M-878.695,1067.604c6.572-5.619,15.053-10.918,20.777-16.008c2.968-2.648,4.77-5.406,4.77-9.01
		c0-5.617-3.286-9.434-9.434-9.434c-3.393,0-6.043,1.061-7.845,3.285c-2.12,2.439-3.18,5.725-3.286,10.707h-16.748
		c0-8.48,1.483-13.674,4.981-18.445c4.135-5.936,11.979-9.963,23.321-9.963c17.49,0,26.924,10.387,26.924,23.213
		c0,10.07-5.617,15.902-12.084,20.883c-6.466,5.301-14.311,9.754-19.398,15.158v0.107h31.59v14.734h-56.395
		C-891.31,1080.642-885.903,1073.646-878.695,1067.604z"/>
	<path fill="#FFFFFF" d="M-813.719,1055.202c0-22.58,14.734-39.646,37.313-39.646c8.799,0,16.219,2.545,21.625,6.68
		c6.572,4.98,10.389,12.402,11.344,20.883h-18.764c-0.953-6.785-6.254-11.979-14.311-11.979c-12.297,0-18.127,10.281-18.127,24.063
		c0,13.885,6.996,23.955,18.232,23.955c8.375,0,13.887-5.299,14.734-12.613h18.764c-0.529,7.525-3.922,14.416-9.117,19.398
		c-5.83,5.617-13.568,8.586-24.273,8.586C-798.561,1094.528-813.719,1077.886-813.719,1055.202z"/>
	<path fill="#FFFFFF" d="M-739.307,1055.095c0-22.684,14.521-39.539,37.418-39.539c23.004,0,37.525,16.855,37.525,39.539
		c0,22.686-14.521,39.539-37.525,39.539C-724.785,1094.634-739.307,1077.78-739.307,1055.095z M-683.443,1055.095
		c0-13.779-6.043-24.379-18.338-24.379c-12.191,0-18.445,10.6-18.445,24.379c0,13.781,6.254,24.275,18.445,24.275
		C-689.486,1079.37-683.443,1068.876-683.443,1055.095z"/>
	<path fill="#FFFFFF" d="M-657.051,1017.04h56.393v15.795h-37.631v15.371h31.482v15.158h-31.482v29.469h-18.762V1017.04z"/>
	<path fill="#FFFFFF" d="M-593.24,1017.04h56.393v15.795h-37.631v15.371h31.482v15.158h-31.482v29.469h-18.762V1017.04z"/>
	<path fill="#FFFFFF" d="M-529.43,1017.04h57.453v15.477h-38.691v13.568h33.18v14.629h-33.18v16.219h39.326v15.9h-58.088V1017.04z"
		/>
	<path fill="#FFFFFF" d="M-462.863,1017.04h57.453v15.477H-444.1v13.568h33.178v14.629H-444.1v16.219h39.326v15.9h-58.09V1017.04z"
		/>
</g>
<rect x="-34.75" y="1108.329" fill="#1E1E1E" width="320" height="629"/>
<rect x="-923.75" y="1220.329" fill="#FF5757" width="225" height="8"/>
<g>
	<path fill="#FFFFFF" d="M-927.369,1180.951l0.34,0.36c-0.72,0.813-1.566,1.22-2.54,1.22c-0.746,0-1.307-0.181-1.68-0.54
		c-0.373-0.36-0.627-0.974-0.76-1.84l-0.38-2.681c-0.28-1.933-1.348-2.899-3.2-2.899h-1.561v7.04l1.841,0.3v0.42h-5.881v-0.42
		l1.841-0.3v-14.561l-1.841-0.279v-0.44h5.601c2.173,0,3.746,0.34,4.72,1.02c0.974,0.681,1.46,1.714,1.46,3.101
		c0,2.293-1.387,3.62-4.16,3.979v0.12c2.094,0.294,3.307,1.44,3.641,3.44l0.26,1.72c0.106,0.667,0.22,1.14,0.34,1.42
		c0.146,0.334,0.4,0.5,0.76,0.5C-928.209,1181.631-927.809,1181.404-927.369,1180.951z M-935.589,1166.831h-1.561v7.26h2.24
		c0.974,0,1.73-0.296,2.271-0.89c0.54-0.593,0.81-1.47,0.81-2.63v-0.42C-931.829,1167.938-933.082,1166.831-935.589,1166.831z"/>
	<path fill="#FFFFFF" d="M-923.688,1181.911v0.42h-4.28v-0.42l1.96-0.8l5.78-15.181h0.319l5.46,15.681l1.84,0.3v0.42h-5.88v-0.42
		l1.641-0.26l-1.7-4.74h-5.32l-1.62,4.2L-923.688,1181.911z M-921.089,1169.451l-2.62,7.04h5.021L-921.089,1169.451z"/>
	<path fill="#FFFFFF" d="M-906.369,1181.911v0.42h-5.88v-0.42l1.84-0.3v-14.561l-1.84-0.279v-0.44h5.88v0.44l-1.84,0.279v14.561
		L-906.369,1181.911z"/>
	<path fill="#FFFFFF" d="M-904.85,1166.331h5.881v0.44l-1.841,0.279v14.8h5.98l1.64-4.399h0.54v4.88h-12.2v-0.42l1.841-0.3v-14.561
		l-1.841-0.279V1166.331z"/>
	<path fill="#FFFFFF" d="M-881.429,1165.931h0.439v4.08h-0.439l-1.44-2.92c-1-0.479-2.083-0.72-3.25-0.72s-2.083,0.297-2.75,0.89
		c-0.667,0.594-1,1.377-1,2.351c0,0.72,0.236,1.286,0.71,1.7c0.473,0.413,1.17,0.739,2.09,0.979l3.58,0.94
		c1.16,0.293,2.023,0.797,2.59,1.51s0.851,1.804,0.851,3.27c0,1.467-0.457,2.62-1.37,3.46c-0.914,0.841-2.137,1.261-3.67,1.261
		c-1.24,0-2.46-0.354-3.66-1.061l-1.7,0.86h-0.44v-5.141h0.44l1.72,3.721c1.106,0.786,2.311,1.18,3.61,1.18s2.333-0.31,3.1-0.93
		s1.15-1.49,1.15-2.61c0-0.813-0.247-1.456-0.74-1.93s-1.293-0.851-2.399-1.13l-3.32-0.86c-1.16-0.307-2.033-0.83-2.62-1.57
		c-0.587-0.739-0.88-1.616-0.88-2.63c0-1.413,0.413-2.55,1.24-3.41c0.826-0.859,1.973-1.29,3.439-1.29c1.213,0,2.3,0.207,3.26,0.62
		L-881.429,1165.931z"/>
	<path fill="#FFFFFF" d="M-859.79,1180.951l0.34,0.36c-0.72,0.813-1.566,1.22-2.54,1.22c-0.746,0-1.307-0.181-1.68-0.54
		c-0.373-0.36-0.627-0.974-0.76-1.84l-0.38-2.681c-0.28-1.933-1.348-2.899-3.2-2.899h-1.561v7.04l1.841,0.3v0.42h-5.881v-0.42
		l1.841-0.3v-14.561l-1.841-0.279v-0.44h5.601c2.173,0,3.746,0.34,4.72,1.02c0.974,0.681,1.46,1.714,1.46,3.101
		c0,2.293-1.387,3.62-4.16,3.979v0.12c2.094,0.294,3.307,1.44,3.641,3.44l0.26,1.72c0.106,0.667,0.22,1.14,0.34,1.42
		c0.146,0.334,0.4,0.5,0.76,0.5C-860.63,1181.631-860.229,1181.404-859.79,1180.951z M-868.01,1166.831h-1.561v7.26h2.24
		c0.974,0,1.73-0.296,2.271-0.89c0.54-0.593,0.81-1.47,0.81-2.63v-0.42C-864.25,1167.938-865.503,1166.831-868.01,1166.831z"/>
	<path fill="#FFFFFF" d="M-846.289,1177.951c0,1.6-0.447,2.797-1.341,3.59s-2.333,1.19-4.319,1.19c-1.987,0-3.434-0.437-4.34-1.311
		c-0.907-0.873-1.36-2.03-1.36-3.47v-10.9l-1.84-0.279v-0.44h5.88v0.44l-1.84,0.279v10.9c0,2.707,1.479,4.06,4.439,4.06
		c2.827,0,4.24-1.353,4.24-4.06v-10.4l-1.86-0.779v-0.44h4.261v0.44l-1.92,0.779V1177.951z"/>
	<path fill="#FFFFFF" d="M-841.229,1181.111v-14.061l-1.841-0.279v-0.44h4.421l5.02,12.84l5.12-12.84h4.04v0.44l-1.84,0.279v14.561
		l1.84,0.3v0.42h-5.88v-0.42l1.84-0.3v-13.96l-5.92,14.88h-0.36l-5.96-15.48v14.061l1.92,0.8v0.42h-4.28v-0.42L-841.229,1181.111z"
		/>
	<path fill="#FFFFFF" d="M-809.931,1178.011c0,1.467-0.537,2.554-1.61,3.261c-1.073,0.706-2.523,1.06-4.35,1.06h-7.061v-0.42
		l1.841-0.3v-14.561l-1.841-0.279v-0.44h6.101c2.12,0,3.63,0.297,4.53,0.89c0.899,0.594,1.35,1.544,1.35,2.851
		c0,1.92-1.214,3.146-3.64,3.68v0.1C-811.49,1174.265-809.931,1175.651-809.931,1178.011z M-816.851,1166.831h-2.061v6.86h2.221
		c1.066,0,1.887-0.301,2.46-0.9s0.859-1.453,0.859-2.56v-0.12C-813.371,1167.925-814.53,1166.831-816.851,1166.831z
		 M-815.891,1174.191h-3.021v7.659h3.021c1.133,0,2.013-0.329,2.64-0.989s0.94-1.604,0.94-2.83v-0.22c0-1.214-0.311-2.12-0.93-2.721
		C-813.86,1174.491-814.744,1174.191-815.891,1174.191z"/>
	<path fill="#FFFFFF" d="M-808.311,1166.331h5.88v0.44l-1.84,0.279v14.8h5.979l1.641-4.399h0.54v4.88h-12.2v-0.42l1.84-0.3v-14.561
		l-1.84-0.279V1166.331z"/>
	<path fill="#FFFFFF" d="M-787.051,1171.131h0.521v6.32h-0.521l-1.2-2.94h-2.58v7.34h6.28l1.641-4.399h0.52v4.88h-12.48v-0.42
		l1.841-0.3v-14.561l-1.841-0.279v-0.44h12.04v4.58h-0.54l-1.539-4.08h-5.921v7.2h2.601L-787.051,1171.131z"/>
	<path fill="#FFFFFF" d="M-769.491,1176.131h-2.24v5.48l1.841,0.3v0.42h-5.881v-0.42l1.841-0.3v-14.561l-1.841-0.279v-0.44h6.28
		c3.894,0,5.84,1.634,5.84,4.9S-765.598,1176.131-769.491,1176.131z M-769.771,1166.831h-1.96v8.82h1.96c2.467,0,3.7-1.34,3.7-4.021
		v-0.8C-766.071,1168.164-767.305,1166.831-769.771,1166.831z"/>
	<path fill="#FFFFFF" d="M-748.57,1180.951l0.34,0.36c-0.72,0.813-1.567,1.22-2.54,1.22c-0.747,0-1.307-0.181-1.68-0.54
		c-0.374-0.36-0.627-0.974-0.761-1.84l-0.38-2.681c-0.28-1.933-1.347-2.899-3.2-2.899h-1.56v7.04l1.84,0.3v0.42h-5.88v-0.42
		l1.84-0.3v-14.561l-1.84-0.279v-0.44h5.6c2.174,0,3.747,0.34,4.721,1.02c0.973,0.681,1.46,1.714,1.46,3.101
		c0,2.293-1.387,3.62-4.16,3.979v0.12c2.093,0.294,3.307,1.44,3.64,3.44l0.26,1.72c0.107,0.667,0.221,1.14,0.341,1.42
		c0.146,0.334,0.399,0.5,0.76,0.5S-749.011,1181.404-748.57,1180.951z M-756.791,1166.831h-1.56v7.26h2.24
		c0.973,0,1.729-0.296,2.27-0.89c0.54-0.593,0.811-1.47,0.811-2.63v-0.42C-753.03,1167.938-754.284,1166.831-756.791,1166.831z"/>
	<path fill="#FFFFFF" d="M-747.73,1174.331c0-1.253,0.187-2.394,0.56-3.42s0.9-1.913,1.58-2.66c1.413-1.547,3.213-2.32,5.4-2.32
		c1.093,0,2.103,0.207,3.029,0.62c0.927,0.414,1.724,0.994,2.391,1.74c1.413,1.56,2.12,3.573,2.12,6.04
		c0,2.453-0.7,4.467-2.101,6.04c-0.667,0.747-1.463,1.327-2.39,1.74s-1.943,0.62-3.05,0.62c-2.2,0-4.007-0.783-5.42-2.351
		C-747.024,1178.814-747.73,1176.798-747.73,1174.331z M-735.131,1175.871v-3.08c0-1.933-0.474-3.486-1.42-4.66
		c-0.934-1.16-2.146-1.74-3.64-1.74c-1.494,0-2.707,0.58-3.641,1.74c-0.946,1.174-1.42,2.728-1.42,4.66v3.08
		c0,1.974,0.474,3.54,1.42,4.7c0.934,1.133,2.146,1.7,3.641,1.7c1.493,0,2.706-0.567,3.64-1.7
		C-735.604,1179.411-735.131,1177.845-735.131,1175.871z"/>
	<path fill="#FFFFFF" d="M-725.94,1181.471c-0.247,0.427-0.62,0.744-1.12,0.95c-0.5,0.207-1.141,0.311-1.92,0.311
		c-0.78,0-1.434-0.174-1.96-0.521c-0.527-0.347-0.79-0.853-0.79-1.52c0-0.44,0.123-0.797,0.369-1.07
		c0.247-0.273,0.551-0.41,0.91-0.41c0.36,0,0.646,0.101,0.86,0.3c0.213,0.2,0.347,0.394,0.4,0.58l0.06,0.3
		c-0.387,0.28-0.58,0.577-0.58,0.891s0.08,0.557,0.24,0.729c0.16,0.174,0.38,0.261,0.66,0.261c0.426,0,0.75-0.287,0.97-0.86
		s0.356-1.58,0.41-3.021v-11.34l-1.84-0.279v-0.44h5.8v0.44l-1.84,0.279v11.34c0,0.694-0.044,1.273-0.13,1.74
		C-725.527,1180.598-725.694,1181.045-725.94,1181.471z"/>
	<path fill="#FFFFFF" d="M-714.351,1171.131h0.52v6.32h-0.52l-1.2-2.94h-2.58v7.34h6.28l1.64-4.399h0.521v4.88h-12.48v-0.42
		l1.84-0.3v-14.561l-1.84-0.279v-0.44h12.04v4.58h-0.54l-1.54-4.08h-5.92v7.2h2.6L-714.351,1171.131z"/>
	<path fill="#FFFFFF" d="M-695.531,1165.931h0.42v4.96h-0.42l-1.24-3.1c-1.014-0.933-2.166-1.4-3.46-1.4
		c-1.427,0-2.566,0.54-3.42,1.62c-0.88,1.107-1.319,2.601-1.319,4.48v3.66c0,1.894,0.42,3.394,1.26,4.5
		c0.826,1.08,1.953,1.62,3.38,1.62c0.681,0,1.36-0.15,2.04-0.45s1.246-0.703,1.699-1.21l1.16-3.221h0.42v5.141h-0.42l-1.439-1.021
		c-1.014,0.813-2.119,1.221-3.32,1.221c-1.199,0-2.243-0.204-3.13-0.61s-1.649-0.977-2.29-1.71c-1.307-1.547-1.96-3.573-1.96-6.08
		c0-2.48,0.673-4.493,2.021-6.04c1.359-1.573,3.133-2.36,5.319-2.36c1.2,0,2.321,0.381,3.36,1.141L-695.531,1165.931z"/>
	<path fill="#FFFFFF" d="M-680.91,1170.791l-1.5-3.96h-3.32v14.78l1.84,0.3v0.42h-5.881v-0.42l1.84-0.3v-14.78h-3.299l-1.521,3.96
		h-0.578v-4.46h13.02v4.46H-680.91z"/>
</g>
<path fill="#3F3F3F" d="M-1341.51,19L-1341.51,19l-3.798,4.329l-0.123,0.141l0,0l-8.325,9.492l-8.325-9.492l0,0l-2.07-2.36L-1366,19
	l0,0v5.159V47.19h3.92v-4.525v-2.291V28.67l6.018,6.923l0,0l0,0l1.19,1.369l1.117,1.285l0,0l7.773,8.943h4.472V19L-1341.51,19z
	 M-1345.553,42.665c0,0-2.573-3.279-4.594-5.588l-1.332-1.518l6.048-7.141v14.246H-1345.553z"/>
<line fill="none" x1="-1335.75" y1="44.329" x2="-1320.75" y2="44.329"/>
<rect x="-1365.893" y="196.329" fill="none" width="380.981" height="92.995"/>
<text transform="matrix(1 0 0 1 -1365.8931 208.3291)" fill="#1E1E1E" font-family="'Prata-Regular'" font-size="15" letter-spacing="1">HELLO.</text>
<rect x="-1365.893" y="244.329" fill="none" width="892.217" height="248.084"/>
<text transform="matrix(1 0 0 1 -1365.8931 276.3286)"><tspan x="0" y="0" fill="#3F3F3F" font-family="'Prata-Regular'" font-size="40">I am Natália Medina, brazilian visual designer </tspan><tspan x="0" y="65" fill="#3F3F3F" font-family="'Prata-Regular'" font-size="40">born and raised in Rio de Janeiro. </tspan><tspan x="0" y="130" fill="#3F3F3F" font-family="'Prata-Regular'" font-size="40">Currently working at </tspan><tspan x="412.915" y="130" fill="#FF5757" font-family="'Prata-Regular'" font-size="40">Globo.com</tspan></text>
<path fill="#3F3F3F" d="M24.49,0L24.49,0l-3.798,4.329L20.57,4.47l0,0l-8.325,9.492L3.92,4.47l0,0l-2.07-2.36L0,0l0,0v5.159V28.19
	h3.92v-4.525v-2.291V9.67l6.018,6.923l0,0l0,0l1.19,1.369l1.117,1.285l0,0l7.773,8.943h4.472V0L24.49,0z M20.447,23.665
	c0,0-2.573-3.279-4.594-5.588l-1.332-1.518l6.049-7.141v14.246H20.447z"/>
<line fill="none" x1="30.25" y1="25.329" x2="45.25" y2="25.329"/>
</svg>
